<?xml version="1.0" encoding="UTF-8"?>
<svg id="Layer_1" data-name="Layer 1" xmlns="http://www.w3.org/2000/svg" xmlns:xlink="http://www.w3.org/1999/xlink" viewBox="0 0 838.78 170.41">
  <defs>
    <style>
.cls-1 {
        opacity: .58;
        stroke: url(#linear-gradient-40);
        stroke-miterlimit: 4;
        stroke-width: 2.8px;
      }

      .cls-1, .cls-2, .cls-3, .cls-4, .cls-5, .cls-6, .cls-7, .cls-8, .cls-9, .cls-10, .cls-11, .cls-12, .cls-13, .cls-14, .cls-15, .cls-16, .cls-17, .cls-18, .cls-19, .cls-20, .cls-21, .cls-22, .cls-23, .cls-24, .cls-25, .cls-26, .cls-27, .cls-28, .cls-29, .cls-30, .cls-31, .cls-32, .cls-33, .cls-34, .cls-35, .cls-36, .cls-37, .cls-38, .cls-39, .cls-40, .cls-41 {
        fill: none;
      }

      .cls-1, .cls-2, .cls-4, .cls-5, .cls-6, .cls-7, .cls-8, .cls-9, .cls-10, .cls-11, .cls-13, .cls-14, .cls-15, .cls-16, .cls-17, .cls-18, .cls-19, .cls-20, .cls-21, .cls-22, .cls-23, .cls-24, .cls-25, .cls-26, .cls-27, .cls-28, .cls-29, .cls-30, .cls-31, .cls-32, .cls-33, .cls-34, .cls-35, .cls-36, .cls-37, .cls-38, .cls-39, .cls-40, .cls-41 {
        isolation: isolate;
      }

      .cls-2 {
        opacity: .97;
        stroke: url(#linear-gradient-5);
        stroke-miterlimit: 4;
        stroke-width: 2.8px;
      }

      .cls-3 {
        stroke: url(#linear-gradient-2);
        stroke-width: 2.8px;
      }

      .cls-4 {
        opacity: .7;
        stroke: url(#linear-gradient-29);
        stroke-miterlimit: 4;
        stroke-width: 2.8px;
      }

      .cls-5 {
        opacity: .63;
        stroke: url(#linear-gradient-36);
        stroke-miterlimit: 4;
        stroke-width: 2.8px;
      }

      .cls-6 {
        opacity: .66;
        stroke: url(#linear-gradient-33);
        stroke-miterlimit: 4;
        stroke-width: 2.8px;
      }

      .cls-7 {
        opacity: .89;
        stroke: url(#linear-gradient-12);
        stroke-miterlimit: 4;
        stroke-width: 2.8px;
      }

      .cls-8 {
        opacity: .6;
        stroke: url(#linear-gradient-38);
        stroke-miterlimit: 4;
        stroke-width: 2.8px;
      }

      .cls-9 {
        opacity: .94;
        stroke: url(#linear-gradient-7);
        stroke-miterlimit: 4;
        stroke-width: 2.8px;
      }

      .cls-10 {
        opacity: .69;
        stroke: url(#linear-gradient-30);
        stroke-miterlimit: 4;
        stroke-width: 2.8px;
      }

      .cls-42 {
        font-family: Inter-Thin, Inter;
        font-variation-settings: 'wght' 100, 'slnt' 0;
        font-weight: 200;
      }

      .cls-42, .cls-43 {
        fill: #fff;
        font-size: 90px;
      }

      .cls-11 {
        opacity: .92;
        stroke: url(#linear-gradient-9);
        stroke-miterlimit: 4;
        stroke-width: 2.8px;
      }

      .cls-12 {
        stroke: url(#linear-gradient);
        stroke-width: 3.5px;
      }

      .cls-13 {
        opacity: .8;
        stroke: url(#linear-gradient-20);
        stroke-miterlimit: 4;
        stroke-width: 2.8px;
      }

      .cls-14 {
        opacity: .76;
        stroke: url(#linear-gradient-24);
        stroke-miterlimit: 4;
        stroke-width: 2.8px;
      }

      .cls-15 {
        opacity: .88;
        stroke: url(#linear-gradient-13);
        stroke-miterlimit: 4;
        stroke-width: 2.8px;
      }

      .cls-16 {
        opacity: .59;
        stroke: url(#linear-gradient-39);
        stroke-miterlimit: 4;
        stroke-width: 2.8px;
      }

      .cls-17 {
        opacity: .73;
        stroke: url(#linear-gradient-27);
        stroke-miterlimit: 4;
        stroke-width: 2.8px;
      }

      .cls-18 {
        opacity: .83;
        stroke: url(#linear-gradient-17);
        stroke-miterlimit: 4;
        stroke-width: 2.8px;
      }

      .cls-19 {
        opacity: .57;
        stroke: url(#linear-gradient-41);
        stroke-miterlimit: 4;
        stroke-width: 2.8px;
      }

      .cls-20 {
        opacity: .65;
        stroke: url(#linear-gradient-34);
        stroke-miterlimit: 4;
        stroke-width: 2.8px;
      }

      .cls-21 {
        opacity: .67;
        stroke: url(#linear-gradient-32);
        stroke-miterlimit: 4;
        stroke-width: 2.8px;
      }

      .cls-22 {
        opacity: .81;
        stroke: url(#linear-gradient-19);
        stroke-miterlimit: 4;
        stroke-width: 2.8px;
      }

      .cls-23 {
        opacity: .79;
        stroke: url(#linear-gradient-21);
        stroke-miterlimit: 4;
        stroke-width: 2.8px;
      }

      .cls-24 {
        opacity: .64;
        stroke: url(#linear-gradient-35);
        stroke-miterlimit: 4;
        stroke-width: 2.8px;
      }

      .cls-25 {
        opacity: .71;
        stroke: url(#linear-gradient-28);
        stroke-miterlimit: 4;
        stroke-width: 2.8px;
      }

      .cls-26 {
        opacity: .96;
        stroke: url(#linear-gradient-6);
        stroke-miterlimit: 4;
        stroke-width: 2.8px;
      }

      .cls-43 {
        font-family: Inter-Black, Inter;
        font-variation-settings: 'wght' 900, 'slnt' 0;
        font-weight: 800;
      }

      .cls-27 {
        opacity: .86;
        stroke: url(#linear-gradient-15);
        stroke-miterlimit: 4;
        stroke-width: 2.8px;
      }

      .cls-28 {
        opacity: .82;
        stroke: url(#linear-gradient-18);
        stroke-miterlimit: 4;
        stroke-width: 2.8px;
      }

      .cls-29 {
        opacity: .78;
        stroke: url(#linear-gradient-22);
        stroke-miterlimit: 4;
        stroke-width: 2.8px;
      }

      .cls-30 {
        opacity: .98;
        stroke: url(#linear-gradient-4);
        stroke-miterlimit: 4;
        stroke-width: 2.8px;
      }

      .cls-31 {
        opacity: .93;
        stroke: url(#linear-gradient-8);
        stroke-miterlimit: 4;
        stroke-width: 2.8px;
      }

      .cls-32 {
        opacity: .91;
        stroke: url(#linear-gradient-10);
        stroke-miterlimit: 4;
        stroke-width: 2.8px;
      }

      .cls-33 {
        opacity: .85;
        stroke: url(#linear-gradient-16);
        stroke-miterlimit: 4;
        stroke-width: 2.8px;
      }

      .cls-34 {
        opacity: .87;
        stroke: url(#linear-gradient-14);
        stroke-miterlimit: 4;
        stroke-width: 2.8px;
      }

      .cls-35 {
        opacity: .99;
        stroke: url(#linear-gradient-3);
        stroke-miterlimit: 4;
        stroke-width: 2.8px;
      }

      .cls-36 {
        opacity: .9;
        stroke: url(#linear-gradient-11);
        stroke-miterlimit: 4;
        stroke-width: 2.8px;
      }

      .cls-37 {
        opacity: .75;
        stroke: url(#linear-gradient-25);
        stroke-miterlimit: 4;
        stroke-width: 2.8px;
      }

      .cls-38 {
        opacity: .77;
        stroke: url(#linear-gradient-23);
        stroke-miterlimit: 4;
        stroke-width: 2.8px;
      }

      .cls-39 {
        opacity: .62;
        stroke: url(#linear-gradient-37);
        stroke-miterlimit: 4;
        stroke-width: 2.8px;
      }

      .cls-40 {
        opacity: .74;
        stroke: url(#linear-gradient-26);
        stroke-miterlimit: 4;
        stroke-width: 2.8px;
      }

      .cls-41 {
        opacity: .68;
        stroke: url(#linear-gradient-31);
        stroke-miterlimit: 4;
        stroke-width: 2.8px;
      }
    </style>
    <linearGradient id="linear-gradient" x1="-184.39" y1="472.85" x2="-183.54" y2="472.85" gradientTransform="translate(69987.6327 208140) scale(380 -440)" gradientUnits="userSpaceOnUse">
      <stop offset="0" stop-color="#00c2ff"/>
      <stop offset=".5" stop-color="#7b2fff"/>
      <stop offset="1" stop-color="#f0f"/>
    </linearGradient>
    <linearGradient id="linear-gradient-2" x1="-184.4" y1="473.47" x2="-183.53" y2="473.47" gradientTransform="translate(63807.4442 141851.4286) scale(346.4102 -300)" xlink:href="#linear-gradient"/>
    <linearGradient id="linear-gradient-3" x1="-184.36" y1="473.47" x2="-183.49" y2="473.47" gradientTransform="translate(46295.5533 144894.2252) rotate(6.5) scale(338.7891 -293.4)" xlink:href="#linear-gradient"/>
    <linearGradient id="linear-gradient-4" x1="-184.32" y1="473.47" x2="-183.44" y2="473.47" gradientTransform="translate(28927.5382 145838.2747) rotate(13) scale(331.1681 -286.8)" xlink:href="#linear-gradient"/>
    <linearGradient id="linear-gradient-5" x1="-184.27" y1="473.48" x2="-183.4" y2="473.48" gradientTransform="translate(11948.577 144756.5783) rotate(19.5) scale(323.5471 -280.2)" xlink:href="#linear-gradient"/>
    <linearGradient id="linear-gradient-6" x1="-184.23" y1="473.49" x2="-183.36" y2="473.49" gradientTransform="translate(-4410.888 141749.988) rotate(26) scale(315.9261 -273.6)" xlink:href="#linear-gradient"/>
    <linearGradient id="linear-gradient-7" x1="-184.19" y1="473.51" x2="-183.31" y2="473.51" gradientTransform="translate(-19938.3535 136945.032) rotate(32.5) scale(308.3051 -267)" xlink:href="#linear-gradient"/>
    <linearGradient id="linear-gradient-8" x1="-184.14" y1="473.53" x2="-183.27" y2="473.53" gradientTransform="translate(-34441.926 130490.9676) rotate(39) scale(300.684 -260.4)" xlink:href="#linear-gradient"/>
    <linearGradient id="linear-gradient-9" x1="-184.1" y1="473.57" x2="-183.23" y2="473.57" gradientTransform="translate(-47752.7442 122556.8041) rotate(45.5) scale(293.063 -253.8)" xlink:href="#linear-gradient"/>
    <linearGradient id="linear-gradient-10" x1="-184.07" y1="473.6" x2="-183.19" y2="473.6" gradientTransform="translate(-59726.9365 113328.1253) rotate(52) scale(285.442 -247.2)" xlink:href="#linear-gradient"/>
    <linearGradient id="linear-gradient-11" x1="-184.03" y1="473.64" x2="-183.16" y2="473.64" gradientTransform="translate(-70247.0467 103003.4167) rotate(58.5) scale(277.8209 -240.6)" xlink:href="#linear-gradient"/>
    <linearGradient id="linear-gradient-12" x1="-184" y1="473.69" x2="-183.12" y2="473.69" gradientTransform="translate(-79223.1815 91790.7167) rotate(65) scale(270.1999 -234)" xlink:href="#linear-gradient"/>
    <linearGradient id="linear-gradient-13" x1="-183.97" y1="473.75" x2="-183.1" y2="473.75" gradientTransform="translate(-86593.471 79903.7911) rotate(71.5) scale(262.5789 -227.4)" xlink:href="#linear-gradient"/>
    <linearGradient id="linear-gradient-14" x1="-183.95" y1="473.8" x2="-183.07" y2="473.8" gradientTransform="translate(-92324.2468 67558.5959) rotate(78) scale(254.9579 -220.8)" xlink:href="#linear-gradient"/>
    <linearGradient id="linear-gradient-15" x1="-183.93" y1="473.87" x2="-183.05" y2="473.87" gradientTransform="translate(-96409.7053 54969.6503) rotate(84.5) scale(247.3369 -214.2)" xlink:href="#linear-gradient"/>
    <linearGradient id="linear-gradient-16" x1="-183.91" y1="473.93" x2="-183.04" y2="473.93" gradientTransform="translate(-98871.0143 42346.5714) rotate(91) scale(239.7158 -207.6)" xlink:href="#linear-gradient"/>
    <linearGradient id="linear-gradient-17" x1="-183.9" y1="474.01" x2="-183.03" y2="474.01" gradientTransform="translate(-99755.2207 29890.7548) rotate(97.5) scale(232.0948 -201)" xlink:href="#linear-gradient"/>
    <linearGradient id="linear-gradient-18" x1="-183.9" y1="474.08" x2="-183.03" y2="474.08" gradientTransform="translate(-99133.5235 17792.2953) rotate(104) scale(224.4738 -194.4)" xlink:href="#linear-gradient"/>
    <linearGradient id="linear-gradient-19" x1="-183.91" y1="474.16" x2="-183.03" y2="474.16" gradientTransform="translate(-97099.3499 6227.1598) rotate(110.5) scale(216.8528 -187.8)" xlink:href="#linear-gradient"/>
    <linearGradient id="linear-gradient-20" x1="-183.92" y1="474.24" x2="-183.05" y2="474.24" gradientTransform="translate(-93766.0815 -4645.3705) rotate(117) scale(209.2317 -181.2)" xlink:href="#linear-gradient"/>
    <linearGradient id="linear-gradient-21" x1="-183.94" y1="474.31" x2="-183.07" y2="474.31" gradientTransform="translate(-89264.3941 -14684.8243) rotate(123.5) scale(201.6107 -174.6)" xlink:href="#linear-gradient"/>
    <linearGradient id="linear-gradient-22" x1="-183.97" y1="474.4" x2="-183.09" y2="474.4" gradientTransform="translate(-83739.5227 -23771.419) rotate(130) scale(193.9897 -168)" xlink:href="#linear-gradient"/>
    <linearGradient id="linear-gradient-23" x1="-184.01" y1="474.47" x2="-183.13" y2="474.47" gradientTransform="translate(-77348.2494 -31807.4291) rotate(136.5) scale(186.3687 -161.4)" xlink:href="#linear-gradient"/>
    <linearGradient id="linear-gradient-24" x1="-184.05" y1="474.55" x2="-183.18" y2="474.55" gradientTransform="translate(-70255.7749 -38718.2282) rotate(143) scale(178.7476 -154.8)" xlink:href="#linear-gradient"/>
    <linearGradient id="linear-gradient-25" x1="-184.11" y1="474.63" x2="-183.23" y2="474.63" gradientTransform="translate(-62632.5342 -44452.9031) rotate(149.5) scale(171.1266 -148.2)" xlink:href="#linear-gradient"/>
    <linearGradient id="linear-gradient-26" x1="-184.17" y1="474.7" x2="-183.3" y2="474.7" gradientTransform="translate(-54650.9686 -48984.314) rotate(156) scale(163.5056 -141.6)" xlink:href="#linear-gradient"/>
    <linearGradient id="linear-gradient-27" x1="-184.24" y1="474.77" x2="-183.37" y2="474.77" gradientTransform="translate(-46482.3945 -52308.989) rotate(162.5) scale(155.8846 -135)" xlink:href="#linear-gradient"/>
    <linearGradient id="linear-gradient-28" x1="-184.33" y1="474.84" x2="-183.45" y2="474.84" gradientTransform="translate(-38293.885 -54446.3616) rotate(169) scale(148.2635 -128.4)" xlink:href="#linear-gradient"/>
    <linearGradient id="linear-gradient-29" x1="-184.42" y1="474.9" x2="-183.55" y2="474.9" gradientTransform="translate(-30245.3237 -55437.7672) rotate(175.5) scale(140.6425 -121.8)" xlink:href="#linear-gradient"/>
    <linearGradient id="linear-gradient-30" x1="-184.53" y1="474.95" x2="-183.65" y2="474.95" gradientTransform="translate(-22486.6566 -55345.0118) rotate(-178) scale(133.0215 -115.2)" xlink:href="#linear-gradient"/>
    <linearGradient id="linear-gradient-31" x1="-184.64" y1="474.99" x2="-183.77" y2="474.99" gradientTransform="translate(-15155.3698 -54248.606) rotate(-171.5) scale(125.4005 -108.6)" xlink:href="#linear-gradient"/>
    <linearGradient id="linear-gradient-32" x1="-184.77" y1="475.03" x2="-183.9" y2="475.03" gradientTransform="translate(-8374.2274 -52245.7381) rotate(-165) scale(117.7795 -102)" xlink:href="#linear-gradient"/>
    <linearGradient id="linear-gradient-33" x1="-184.91" y1="475.05" x2="-184.04" y2="475.05" gradientTransform="translate(-2249.3355 -49447.9519) rotate(-158.5) scale(110.1584 -95.4)" xlink:href="#linear-gradient"/>
    <linearGradient id="linear-gradient-34" x1="-185.07" y1="475.06" x2="-184.2" y2="475.06" gradientTransform="translate(3131.4813 -45978.5925) rotate(-152) scale(102.5374 -88.8)" xlink:href="#linear-gradient"/>
    <linearGradient id="linear-gradient-35" x1="-185.24" y1="475.06" x2="-184.37" y2="475.06" gradientTransform="translate(7699.8929 -41970.1006) rotate(-145.5) scale(94.9164 -82.2)" xlink:href="#linear-gradient"/>
    <linearGradient id="linear-gradient-36" x1="-185.43" y1="475.04" x2="-184.56" y2="475.04" gradientTransform="translate(11407.9734 -37561.2019) rotate(-139) scale(87.2954 -75.6)" xlink:href="#linear-gradient"/>
    <linearGradient id="linear-gradient-37" x1="-185.65" y1="475" x2="-184.77" y2="475" gradientTransform="translate(14228.6437 -32893.9638) rotate(-132.5) scale(79.6743 -69)" xlink:href="#linear-gradient"/>
    <linearGradient id="linear-gradient-38" x1="-185.89" y1="474.93" x2="-185.01" y2="474.93" gradientTransform="translate(16155.7781 -28110.9169) rotate(-126) scale(72.0533 -62.4)" xlink:href="#linear-gradient"/>
    <linearGradient id="linear-gradient-39" x1="-186.16" y1="474.83" x2="-185.29" y2="474.83" gradientTransform="translate(17203.8823 -23352.1315) rotate(-119.5) scale(64.4323 -55.8)" xlink:href="#linear-gradient"/>
    <linearGradient id="linear-gradient-40" x1="-186.49" y1="474.69" x2="-185.62" y2="474.69" gradientTransform="translate(17407.3968 -18752.4067) rotate(-113) scale(56.8113 -49.2)" xlink:href="#linear-gradient"/>
    <linearGradient id="linear-gradient-41" x1="-186.89" y1="474.5" x2="-186.01" y2="474.5" gradientTransform="translate(16819.6646 -14438.609) rotate(-106.5) scale(49.1902 -42.6)" xlink:href="#linear-gradient"/>
  </defs>
  <text class="cls-43" transform="translate(168.63 111.87)"><tspan x="0" y="0">BRIGHT</tspan></text>
  <text class="cls-42" transform="translate(530.89 111.2)"><tspan x="0" y="0">VISION</tspan></text>
  <g>
    <path class="cls-12" d="M80.51,19.2l57,33v66l-57,33-57-33V52.2l57-33Z"/>
    <g id="spiral">
      <path class="cls-3" d="M80.51,25.2L28.55,115.2h103.92L80.51,25.2Z"/>
      <path class="cls-35" d="M87.15,26.9L26.69,108.6l100.98,11.51L87.15,26.9Z"/>
      <path class="cls-30" d="M93.41,29.31L25.65,101.97l96.8,22.35-29.05-95.01Z"/>
      <path class="cls-2" d="M99.21,32.38L25.41,95.42l91.5,32.4-17.69-95.44Z"/>
      <path class="cls-26" d="M104.5,36.02L25.92,89.02l85.19,41.55-6.61-94.55Z"/>
      <path class="cls-9" d="M109.2,40.17L27.16,82.87l78.01,49.7,4.03-92.4Z"/>
      <path class="cls-31" d="M113.28,44.73L29.07,77.06l70.1,56.77,14.11-89.09Z"/>
      <path class="cls-11" d="M116.71,49.63l-85.12,22.01,61.62,62.71,23.5-84.72Z"/>
      <path class="cls-32" d="M119.47,54.77l-84.8,11.92,52.72,67.48,32.08-79.4Z"/>
      <path class="cls-36" d="M121.54,60.06l-83.32,2.18,43.55,71.06,39.77-73.25Z"/>
      <path class="cls-7" d="M122.92,65.43l-80.75-7.06,34.26,73.47,46.49-66.4Z"/>
      <path class="cls-15" d="M123.64,70.77l-77.19-15.7,25,74.7,52.2-59Z"/>
      <path class="cls-34" d="M123.7,76.02l-72.74-23.64,15.9,74.82,56.84-51.18Z"/>
      <path class="cls-27" d="M123.15,81.1l-67.52-30.77,7.11,73.86,60.41-43.09Z"/>
      <path class="cls-33" d="M122.02,85.93l-61.64-37.04-1.26,71.9,62.9-34.86Z"/>
      <path class="cls-18" d="M120.36,90.45l-55.24-42.39-9.09,69.03,64.33-26.65Z"/>
      <path class="cls-28" d="M118.23,94.61l-48.44-46.78-16.29,65.34,64.73-18.56Z"/>
      <path class="cls-22" d="M115.69,98.36l-41.38-50.2-22.78,60.94,64.16-10.74Z"/>
      <path class="cls-13" d="M112.8,101.66l-34.19-52.64-28.5,55.93,62.68-3.29Z"/>
      <path class="cls-23" d="M109.63,104.48l-26.99-54.13-33.38,50.44,60.37,3.69Z"/>
      <path class="cls-29" d="M106.25,106.8l-19.9-54.69-37.41,44.58,57.31,10.11Z"/>
      <path class="cls-38" d="M102.73,108.62l-13.05-54.37-40.56,38.49,53.61,15.88Z"/>
      <path class="cls-14" d="M99.14,109.93l-6.54-53.22-42.83,32.27,49.36,20.95Z"/>
      <path class="cls-37" d="M95.55,110.74l-.45-51.34-44.23,26.06,44.68,25.28Z"/>
      <path class="cls-40" d="M92.03,111.08l5.13-48.78-44.81,19.95,39.68,28.83Z"/>
      <path class="cls-17" d="M88.63,110.95l10.12-45.66-44.6,14.06,34.48,31.59Z"/>
      <path class="cls-25" d="M85.41,110.41l14.48-42.06-43.66,8.49,29.18,33.57Z"/>
      <path class="cls-4" d="M82.42,109.49l18.16-38.08-42.06,3.31,23.9,34.77Z"/>
      <path class="cls-10" d="M79.7,108.23l21.15-33.84-39.88-1.39,18.73,35.24Z"/>
      <path class="cls-41" d="M77.3,106.69l23.42-29.44-37.21-5.56,13.79,35Z"/>
      <path class="cls-21" d="M75.23,104.91l24.98-24.98-34.13-9.15,9.15,34.13Z"/>
      <path class="cls-6" d="M73.51,102.96l25.86-20.57-30.75-12.11,4.88,32.68Z"/>
      <path class="cls-20" d="M72.17,100.89l26.09-16.3-27.16-14.44,1.07,30.74Z"/>
      <path class="cls-24" d="M71.2,98.75l25.7-12.26-23.47-16.13-2.23,28.39Z"/>
      <path class="cls-5" d="M70.59,96.62l24.76-8.53-19.76-17.18-5,25.71Z"/>
      <path class="cls-39" d="M70.33,94.53l23.34-5.17-16.15-17.62-7.19,22.8Z"/>
      <path class="cls-8" d="M70.41,92.54l21.5-2.26-12.71-17.49-8.79,19.75Z"/>
      <path class="cls-16" d="M70.79,90.7l19.33.17-9.52-16.82-9.81,16.66Z"/>
      <path class="cls-1" d="M71.45,89.05l16.92,2.08-6.66-15.69-10.26,13.61Z"/>
      <path class="cls-19" d="M72.34,87.62l14.35,3.44-4.19-14.15-10.16,10.7Z"/>
    </g>
  </g>
</svg>
